<svg xmlns="http://www.w3.org/2000/svg" xmlns:xlink="http://www.w3.org/1999/xlink" width="500" zoomAndPan="magnify" viewBox="0 0 375 374.999991" height="500" preserveAspectRatio="xMidYMid meet" version="1.0"><defs><clipPath id="id1"><path d="M 83.46875 101 L 291 101 L 291 317.851562 L 83.46875 317.851562 Z M 83.46875 101 " clip-rule="nonzero"/></clipPath><clipPath id="id2"><path d="M 118 130.800781 L 256 130.800781 L 256 268 L 118 268 Z M 118 130.800781 " clip-rule="nonzero"/></clipPath></defs><path fill="#000000" d="M 289.289062 282.09375 L 289.390625 129.964844 C 289.390625 121.5 282.015625 108.808594 272.261719 101.769531 C 271.394531 102.574219 270.402344 103.261719 269.285156 103.816406 C 278.601562 109.964844 285.988281 122.175781 285.988281 129.960938 L 285.890625 282.203125 C 286.851562 297.273438 281.199219 305.988281 268.109375 309.617188 C 260.730469 311.667969 223.304688 313.535156 189.589844 313.535156 C 187.574219 313.535156 185.574219 313.53125 183.617188 313.511719 C 156.921875 313.316406 106.78125 309.394531 106.441406 309.375 C 95.234375 307.375 87.714844 295.484375 87.714844 285.636719 L 87.714844 127.1875 C 87.714844 120.949219 93.753906 109.140625 102.003906 103.109375 C 100.648438 102.832031 99.429688 102.371094 98.328125 101.777344 C 90.046875 108.8125 84.3125 120.546875 84.3125 127.1875 L 84.3125 285.636719 C 84.3125 296.855469 92.964844 310.421875 106.007812 312.746094 C 106.515625 312.785156 156.773438 316.714844 183.59375 316.914062 C 185.5625 316.929688 187.558594 316.933594 189.589844 316.933594 C 220.28125 316.933594 260.449219 315.277344 269.019531 312.894531 C 283.71875 308.8125 290.34375 298.703125 289.289062 282.09375 " fill-opacity="1" fill-rule="nonzero"/><path fill="#000000" d="M 270.101562 103.394531 C 269.585938 103.703125 269.011719 103.96875 268.425781 104.210938 C 277.703125 110.0625 285.144531 122.25 285.144531 129.960938 L 285.039062 282.257812 C 285.96875 296.855469 280.515625 305.289062 267.882812 308.800781 C 260.566406 310.832031 223.238281 312.691406 189.589844 312.691406 C 187.574219 312.691406 185.578125 312.679688 183.628906 312.664062 C 160.359375 312.496094 119.160156 309.488281 107.082031 308.574219 L 106.589844 308.542969 C 95.804688 306.621094 88.566406 295.140625 88.566406 285.636719 L 88.566406 127.1875 C 88.566406 120.9375 94.8125 108.941406 103.203125 103.289062 C 102.4375 103.195312 101.707031 103.042969 101.015625 102.851562 C 92.808594 109.195312 86.867188 120.910156 86.867188 127.1875 L 86.867188 285.636719 C 86.867188 295.828125 94.671875 308.140625 106.390625 310.226562 L 106.957031 310.265625 C 119.046875 311.191406 160.292969 314.195312 183.617188 314.367188 C 185.566406 314.378906 187.5625 314.386719 189.589844 314.386719 C 223.363281 314.386719 260.902344 312.507812 268.339844 310.4375 C 281.875 306.671875 287.726562 297.6875 286.738281 282.203125 L 286.835938 129.960938 C 286.835938 122.089844 279.472656 109.804688 270.101562 103.394531 " fill-opacity="1" fill-rule="nonzero"/><g clip-path="url(#id1)"><path fill="#000000" d="M 290.136719 282.09375 L 290.238281 129.964844 C 290.238281 121.339844 282.769531 108.433594 272.816406 101.1875 C 272.4375 101.585938 272.042969 101.960938 271.613281 102.316406 C 281.238281 109.132812 288.542969 121.636719 288.542969 129.960938 L 288.441406 282.152344 C 289.464844 298.335938 283.039062 308.117188 268.796875 312.074219 C 260.292969 314.441406 220.222656 316.085938 189.589844 316.085938 C 187.5625 316.085938 185.5625 316.082031 183.601562 316.0625 C 156.601562 315.867188 106.582031 311.941406 106.160156 311.910156 C 93.605469 309.671875 85.164062 296.519531 85.164062 285.636719 L 85.164062 127.1875 C 85.164062 120.632812 90.890625 109 99.117188 102.183594 C 98.570312 101.941406 98.0625 101.644531 97.574219 101.332031 C 89.214844 108.597656 83.464844 120.449219 83.464844 127.1875 L 83.464844 285.636719 C 83.464844 297.207031 92.464844 311.199219 105.941406 313.59375 C 106.441406 313.628906 156.527344 317.574219 183.589844 317.769531 C 185.5625 317.78125 187.558594 317.785156 189.589844 317.785156 C 220.332031 317.785156 260.605469 316.113281 269.246094 313.71875 C 284.390625 309.503906 291.222656 299.144531 290.136719 282.09375 " fill-opacity="1" fill-rule="nonzero"/></g><path fill="#000000" d="M 271.449219 142.945312 L 271.367188 254.546875 L 274.203125 254.546875 L 274.28125 142.949219 C 274.28125 135.691406 267.914062 124.78125 259.515625 118.808594 L 253.929688 118.808594 C 263.351562 123.003906 271.449219 135.417969 271.449219 142.945312 " fill-opacity="1" fill-rule="nonzero"/><path fill="#000000" d="M 272.214844 253.699219 L 273.355469 253.699219 L 273.429688 142.945312 C 273.429688 135.734375 267.089844 125.347656 259.25 119.660156 L 257.292969 119.660156 C 265.828125 125.0625 272.292969 136.089844 272.292969 142.945312 Z M 275.054688 255.398438 L 270.515625 255.398438 L 270.59375 142.945312 C 270.59375 135.84375 262.746094 123.664062 253.589844 119.582031 L 249.933594 117.960938 L 259.792969 117.960938 L 260.011719 118.117188 C 268.351562 124.046875 275.125 135.183594 275.125 142.949219 L 275.054688 255.398438 " fill-opacity="1" fill-rule="nonzero"/><path fill="#000000" d="M 103.175781 281.433594 C 102.589844 279.519531 102.261719 277.582031 102.261719 275.734375 L 102.261719 140.582031 C 102.261719 134.796875 108.351562 123.40625 116.316406 118.808594 L 111.488281 118.808594 C 104.363281 124.796875 99.417969 134.882812 99.417969 140.582031 L 99.417969 275.734375 C 99.417969 278.136719 99.886719 280.660156 100.757812 283.128906 C 101.558594 282.558594 102.363281 281.988281 103.175781 281.433594 " fill-opacity="1" fill-rule="nonzero"/><path fill="#000000" d="M 111.808594 119.660156 C 104.890625 125.585938 100.269531 135.210938 100.269531 140.582031 L 100.269531 275.734375 C 100.269531 277.65625 100.59375 279.722656 101.214844 281.769531 C 101.53125 281.53125 101.863281 281.304688 102.191406 281.074219 C 101.671875 279.230469 101.410156 277.433594 101.410156 275.734375 L 101.410156 140.582031 C 101.410156 134.816406 106.640625 124.949219 113.535156 119.660156 Z M 100.339844 284.488281 L 99.960938 283.417969 C 99.039062 280.804688 98.570312 278.222656 98.570312 275.734375 L 98.570312 140.582031 C 98.570312 134.769531 103.546875 124.371094 110.949219 118.164062 L 111.179688 117.960938 L 119.5 117.960938 L 116.738281 119.542969 C 108.835938 124.105469 103.113281 135.277344 103.113281 140.582031 L 103.113281 275.734375 C 103.113281 277.449219 103.410156 279.28125 103.988281 281.179688 L 104.171875 281.773438 L 103.664062 282.125 C 102.855469 282.683594 102.050781 283.25 101.261719 283.824219 L 100.339844 284.488281 " fill-opacity="1" fill-rule="nonzero"/><path fill="#000000" d="M 254.132812 299.433594 C 240.152344 302.785156 205.972656 302.785156 189.316406 302.785156 C 120.324219 302.785156 118.335938 294.867188 118.335938 293.964844 C 118.335938 291.070312 129.144531 286.480469 166.757812 285.164062 C 163.730469 283.371094 164.691406 284.542969 161.230469 282.035156 C 127.324219 283.234375 115.003906 287.097656 115.003906 293.964844 C 115.003906 297.285156 115.003906 306.117188 189.316406 306.117188 C 226.5625 306.117188 249.359375 305.273438 258.699219 301.296875 C 256.953125 300.996094 255.4375 300.335938 254.132812 299.433594 " fill-opacity="1" fill-rule="nonzero"/><path fill="#000000" d="M 160.976562 282.898438 C 129.769531 284.011719 115.851562 287.429688 115.851562 293.964844 C 115.851562 296.757812 115.851562 305.269531 189.316406 305.269531 C 223.128906 305.269531 245.363281 304.609375 255.949219 301.386719 C 255.257812 301.101562 254.601562 300.75 253.960938 300.34375 C 239.65625 303.636719 205.703125 303.636719 189.316406 303.636719 C 122.664062 303.636719 117.480469 296.234375 117.480469 293.964844 C 117.480469 289.183594 134.566406 285.65625 163.378906 284.441406 C 162.875 284.191406 162.203125 283.785156 160.976562 282.898438 Z M 189.316406 306.964844 C 114.15625 306.964844 114.15625 297.859375 114.15625 293.964844 C 114.15625 286.066406 127.785156 282.363281 161.203125 281.1875 L 161.488281 281.175781 L 161.726562 281.347656 C 163.660156 282.746094 164.125 282.933594 164.765625 283.195312 C 165.257812 283.402344 165.875 283.652344 167.191406 284.4375 L 169.6875 285.910156 L 166.789062 286.011719 C 127.75 287.378906 119.179688 292.214844 119.179688 293.964844 C 119.1875 294.03125 120.980469 301.941406 189.316406 301.941406 C 205.777344 301.941406 240.035156 301.941406 253.929688 298.605469 L 254.300781 298.519531 L 254.609375 298.730469 C 255.902344 299.617188 257.324219 300.203125 258.839844 300.460938 L 261.707031 300.9375 L 259.03125 302.078125 C 249.421875 306.164062 226.191406 306.964844 189.316406 306.964844 " fill-opacity="1" fill-rule="nonzero"/><path fill="#000000" d="M 106.085938 90.011719 C 102.394531 90.011719 99.410156 92.828125 99.335938 96.285156 C 99.308594 97.917969 99.929688 99.484375 101.097656 100.679688 C 102.335938 101.96875 104.035156 102.6875 105.855469 102.699219 C 132.746094 103.03125 159.8125 103.1875 186.300781 103.1875 C 212.785156 103.1875 239.847656 103.03125 266.730469 102.699219 C 268.5625 102.6875 270.25 101.96875 271.496094 100.679688 C 272.65625 99.484375 273.28125 97.917969 273.25 96.285156 C 273.191406 92.828125 270.195312 90.011719 266.59375 90.011719 C 239.710938 90.339844 212.726562 90.5 186.300781 90.5 C 159.867188 90.5 132.878906 90.339844 106.085938 90.011719 Z M 186.300781 104.886719 C 159.800781 104.886719 132.726562 104.726562 105.839844 104.410156 C 103.550781 104.378906 101.433594 103.480469 99.878906 101.867188 C 98.390625 100.335938 97.601562 98.34375 97.636719 96.253906 C 97.726562 91.871094 101.476562 88.3125 106 88.3125 C 132.894531 88.636719 159.875 88.800781 186.300781 88.800781 C 212.71875 88.800781 239.695312 88.636719 266.488281 88.3125 C 271.117188 88.3125 274.867188 91.871094 274.949219 96.253906 C 274.992188 98.34375 274.199219 100.335938 272.722656 101.867188 C 271.160156 103.480469 269.035156 104.378906 266.753906 104.410156 C 239.859375 104.726562 212.792969 104.886719 186.300781 104.886719 " fill-opacity="1" fill-rule="nonzero"/><path fill="#000000" d="M 106.074219 90.867188 C 102.855469 90.867188 100.25 93.296875 100.1875 96.300781 C 100.160156 97.707031 100.699219 99.058594 101.707031 100.09375 C 102.785156 101.207031 104.265625 101.835938 105.871094 101.855469 C 132.75 102.179688 159.8125 102.34375 186.300781 102.34375 C 212.785156 102.34375 239.839844 102.179688 266.722656 101.855469 C 268.324219 101.835938 269.804688 101.207031 270.886719 100.09375 C 271.890625 99.058594 272.425781 97.707031 272.398438 96.300781 C 272.347656 93.296875 269.738281 90.867188 266.59375 90.867188 C 239.71875 91.1875 212.730469 91.351562 186.300781 91.351562 C 159.863281 91.351562 132.875 91.1875 106.074219 90.867188 Z M 186.300781 105.742188 C 159.800781 105.742188 132.722656 105.578125 105.828125 105.25 C 103.320312 105.230469 100.988281 104.234375 99.261719 102.457031 C 97.621094 100.765625 96.746094 98.554688 96.789062 96.238281 C 96.882812 91.398438 101.015625 87.460938 106 87.460938 C 132.902344 87.785156 159.878906 87.949219 186.300781 87.949219 C 212.71875 87.949219 239.691406 87.785156 266.476562 87.460938 C 271.578125 87.460938 275.707031 91.398438 275.800781 96.238281 C 275.847656 98.554688 274.972656 100.765625 273.328125 102.457031 C 271.609375 104.234375 269.277344 105.230469 266.761719 105.25 C 239.871094 105.578125 212.796875 105.742188 186.300781 105.742188 " fill-opacity="1" fill-rule="nonzero"/><path fill="#000000" d="M 106.070312 91.714844 C 103.351562 91.714844 101.085938 93.78125 101.035156 96.316406 C 101.015625 97.5 101.464844 98.625 102.316406 99.5 C 103.234375 100.453125 104.511719 100.984375 105.878906 101.003906 C 132.773438 101.324219 159.824219 101.484375 186.300781 101.484375 C 212.769531 101.484375 239.820312 101.324219 266.714844 101.003906 C 268.082031 100.984375 269.355469 100.453125 270.285156 99.5 C 271.125 98.625 271.578125 97.5 271.558594 96.316406 C 271.5 93.773438 269.28125 91.714844 266.59375 91.714844 C 239.753906 92.035156 212.734375 92.203125 186.300781 92.203125 C 159.851562 92.203125 132.859375 92.035156 106.070312 91.714844 Z M 186.300781 103.1875 C 159.816406 103.1875 132.753906 103.03125 105.855469 102.699219 C 104.035156 102.6875 102.335938 101.96875 101.097656 100.679688 C 99.929688 99.484375 99.308594 97.917969 99.335938 96.285156 C 99.410156 92.828125 102.429688 90.011719 106.074219 90.011719 L 106.085938 90.011719 C 132.871094 90.339844 159.855469 90.5 186.300781 90.5 C 212.734375 90.5 239.746094 90.339844 266.578125 90.011719 C 270.195312 90.011719 273.191406 92.828125 273.25 96.28125 C 273.28125 97.917969 272.65625 99.484375 271.496094 100.679688 C 270.253906 101.96875 268.5625 102.6875 266.730469 102.699219 C 239.839844 103.03125 212.78125 103.1875 186.300781 103.1875 Z M 105.996094 88.3125 C 101.476562 88.3125 97.726562 91.871094 97.636719 96.253906 C 97.601562 98.34375 98.390625 100.335938 99.878906 101.867188 C 101.433594 103.480469 103.550781 104.378906 105.835938 104.410156 C 132.746094 104.726562 159.8125 104.886719 186.300781 104.886719 C 212.785156 104.886719 239.855469 104.726562 266.753906 104.410156 C 269.042969 104.378906 271.160156 103.480469 272.722656 101.867188 C 274.199219 100.335938 274.992188 98.34375 274.949219 96.253906 C 274.867188 91.871094 271.066406 88.3125 266.476562 88.3125 C 239.710938 88.636719 212.730469 88.800781 186.300781 88.800781 C 159.878906 88.800781 132.859375 88.636719 105.996094 88.3125 Z M 186.300781 106.585938 C 159.804688 106.585938 132.726562 106.429688 105.816406 106.105469 C 103.078125 106.074219 100.53125 104.992188 98.648438 103.050781 C 96.855469 101.199219 95.890625 98.773438 95.941406 96.222656 C 96.042969 90.921875 100.5625 86.609375 106 86.609375 C 132.875 86.9375 159.882812 87.101562 186.300781 87.101562 C 212.71875 87.101562 239.695312 86.9375 266.46875 86.609375 C 271.988281 86.609375 276.554688 90.921875 276.648438 96.222656 C 276.699219 98.773438 275.742188 101.199219 273.9375 103.050781 C 272.054688 104.992188 269.511719 106.074219 266.769531 106.105469 C 239.867188 106.429688 212.792969 106.585938 186.300781 106.585938 " fill-opacity="1" fill-rule="nonzero"/><path fill="#000000" d="M 106.085938 75.136719 C 102.394531 75.136719 99.410156 77.945312 99.335938 81.402344 C 99.308594 83.042969 99.929688 84.601562 101.097656 85.796875 C 102.335938 87.085938 104.035156 87.804688 105.855469 87.820312 C 132.746094 88.148438 159.8125 88.3125 186.300781 88.3125 C 212.785156 88.3125 239.847656 88.148438 266.730469 87.820312 C 268.5625 87.804688 270.253906 87.085938 271.496094 85.804688 C 272.65625 84.605469 273.28125 83.042969 273.25 81.402344 C 273.191406 77.945312 270.195312 75.128906 266.59375 75.128906 C 239.734375 75.457031 212.753906 75.617188 186.328125 75.617188 L 186.320312 75.617188 C 159.894531 75.617188 132.894531 75.457031 106.085938 75.136719 Z M 186.300781 90.011719 C 159.800781 90.011719 132.726562 89.847656 105.839844 89.527344 C 103.550781 89.496094 101.433594 88.59375 99.871094 86.988281 C 98.390625 85.453125 97.601562 83.460938 97.636719 81.371094 C 97.726562 76.992188 101.476562 73.429688 106 73.429688 C 132.90625 73.753906 159.898438 73.917969 186.320312 73.917969 L 186.328125 73.917969 C 212.742188 73.917969 239.714844 73.753906 266.488281 73.433594 C 271.117188 73.429688 274.867188 76.992188 274.949219 81.371094 C 274.992188 83.460938 274.199219 85.453125 272.722656 86.988281 C 271.160156 88.59375 269.042969 89.496094 266.753906 89.527344 C 239.859375 89.847656 212.792969 90.011719 186.300781 90.011719 " fill-opacity="1" fill-rule="nonzero"/><path fill="#000000" d="M 106.074219 75.984375 C 102.855469 75.984375 100.25 78.417969 100.1875 81.417969 C 100.160156 82.832031 100.699219 84.171875 101.703125 85.210938 C 102.785156 86.328125 104.265625 86.953125 105.871094 86.976562 C 132.75 87.296875 159.8125 87.460938 186.300781 87.460938 C 212.785156 87.460938 239.839844 87.296875 266.722656 86.976562 C 268.324219 86.953125 269.804688 86.328125 270.886719 85.210938 C 271.890625 84.171875 272.425781 82.832031 272.398438 81.417969 C 272.347656 78.417969 269.738281 75.980469 266.59375 75.980469 C 239.734375 76.304688 212.753906 76.476562 186.328125 76.476562 L 186.320312 76.476562 C 159.890625 76.476562 132.894531 76.304688 106.074219 75.984375 Z M 186.300781 90.859375 C 159.800781 90.859375 132.722656 90.695312 105.828125 90.375 C 103.3125 90.347656 100.980469 89.351562 99.261719 87.574219 C 97.621094 85.886719 96.746094 83.675781 96.789062 81.355469 C 96.882812 76.515625 101.015625 72.578125 106 72.578125 C 132.917969 72.90625 159.898438 73.070312 186.320312 73.070312 C 212.734375 73.070312 239.703125 72.90625 266.476562 72.578125 C 271.578125 72.578125 275.707031 76.515625 275.800781 81.355469 C 275.847656 83.679688 274.972656 85.886719 273.328125 87.574219 C 271.613281 89.351562 269.277344 90.347656 266.761719 90.375 C 239.871094 90.695312 212.796875 90.859375 186.300781 90.859375 " fill-opacity="1" fill-rule="nonzero"/><path fill="#000000" d="M 106.070312 76.832031 C 103.351562 76.832031 101.085938 78.898438 101.035156 81.433594 C 101.015625 82.617188 101.464844 83.75 102.308594 84.617188 C 103.234375 85.574219 104.511719 86.109375 105.878906 86.121094 C 132.746094 86.445312 159.804688 86.609375 186.300781 86.609375 C 212.792969 86.609375 239.847656 86.445312 266.714844 86.121094 C 268.082031 86.109375 269.355469 85.574219 270.285156 84.621094 C 271.125 83.75 271.578125 82.617188 271.558594 81.433594 C 271.5 78.898438 269.28125 76.832031 266.59375 76.832031 C 239.734375 77.15625 212.726562 77.320312 186.328125 77.320312 C 159.929688 77.320312 132.925781 77.15625 106.070312 76.832031 Z M 186.300781 88.3125 C 159.800781 88.3125 132.742188 88.148438 105.855469 87.820312 C 104.035156 87.804688 102.335938 87.085938 101.097656 85.796875 C 99.929688 84.601562 99.308594 83.042969 99.335938 81.402344 C 99.410156 77.945312 102.429688 75.136719 106.074219 75.136719 L 106.085938 75.136719 C 132.929688 75.457031 159.929688 75.617188 186.320312 75.617188 C 212.71875 75.617188 239.71875 75.457031 266.578125 75.128906 C 270.195312 75.128906 273.191406 77.945312 273.25 81.402344 C 273.28125 83.042969 272.65625 84.601562 271.496094 85.804688 C 270.253906 87.085938 268.5625 87.804688 266.730469 87.820312 C 239.859375 88.148438 212.796875 88.3125 186.300781 88.3125 Z M 105.996094 73.429688 C 101.476562 73.429688 97.726562 76.992188 97.636719 81.371094 C 97.601562 83.460938 98.390625 85.453125 99.871094 86.988281 C 101.433594 88.59375 103.550781 89.496094 105.835938 89.527344 C 132.714844 89.847656 159.792969 90.011719 186.300781 90.011719 C 212.808594 90.011719 239.875 89.847656 266.753906 89.527344 C 269.042969 89.496094 271.160156 88.59375 272.722656 86.988281 C 274.199219 85.453125 274.992188 83.460938 274.949219 81.371094 C 274.867188 76.992188 271.066406 73.433594 266.476562 73.433594 C 239.679688 73.753906 212.710938 73.917969 186.320312 73.917969 C 159.945312 73.917969 132.917969 73.753906 105.996094 73.429688 Z M 186.300781 91.707031 C 159.777344 91.707031 132.707031 91.546875 105.816406 91.226562 C 103.078125 91.191406 100.53125 90.109375 98.648438 88.167969 C 96.855469 86.320312 95.890625 83.890625 95.941406 81.339844 C 96.042969 76.039062 100.5625 71.730469 106 71.730469 C 132.929688 72.054688 159.957031 72.222656 186.320312 72.222656 C 212.703125 72.222656 239.664062 72.054688 266.46875 71.730469 C 271.988281 71.730469 276.554688 76.039062 276.648438 81.339844 C 276.699219 83.890625 275.742188 86.320312 273.9375 88.167969 C 272.054688 90.109375 269.511719 91.191406 266.769531 91.226562 C 239.886719 91.546875 212.808594 91.707031 186.300781 91.707031 " fill-opacity="1" fill-rule="nonzero"/><path fill="#000000" d="M 107.777344 60.410156 C 104.179688 60.410156 101.265625 63.15625 101.191406 66.53125 C 101.160156 68.128906 101.773438 69.65625 102.902344 70.824219 C 104.125 72.078125 105.777344 72.777344 107.558594 72.796875 C 133.871094 73.113281 160.367188 73.273438 186.300781 73.273438 C 212.222656 73.273438 238.714844 73.113281 265.035156 72.796875 C 266.820312 72.777344 268.46875 72.078125 269.6875 70.824219 C 270.824219 69.65625 271.425781 68.128906 271.394531 66.53125 C 271.335938 63.15625 268.410156 60.40625 264.890625 60.40625 C 238.601562 60.726562 212.199219 60.890625 186.328125 60.890625 L 186.320312 60.890625 C 160.449219 60.890625 134.023438 60.726562 107.78125 60.410156 Z M 186.300781 74.96875 C 160.359375 74.96875 133.863281 74.8125 107.539062 74.5 C 105.292969 74.46875 103.222656 73.589844 101.691406 72.003906 C 100.230469 70.507812 99.457031 68.550781 99.496094 66.492188 C 99.582031 62.199219 103.261719 58.710938 107.703125 58.710938 C 134.035156 59.023438 160.457031 59.191406 186.320312 59.191406 L 186.328125 59.191406 C 212.1875 59.191406 238.585938 59.023438 264.792969 58.710938 C 269.328125 58.710938 273.011719 62.199219 273.09375 66.492188 C 273.128906 68.550781 272.359375 70.507812 270.90625 72.003906 C 269.375 73.589844 267.292969 74.46875 265.054688 74.5 C 238.734375 74.8125 212.230469 74.96875 186.300781 74.96875 " fill-opacity="1" fill-rule="nonzero"/><path fill="#000000" d="M 107.765625 61.261719 C 104.640625 61.261719 102.105469 63.628906 102.042969 66.550781 C 102.015625 67.917969 102.542969 69.226562 103.519531 70.230469 C 104.566406 71.320312 106.007812 71.929688 107.566406 71.945312 C 133.882812 72.261719 160.367188 72.425781 186.300781 72.425781 C 212.222656 72.425781 238.710938 72.261719 265.023438 71.945312 C 266.578125 71.929688 268.019531 71.320312 269.074219 70.230469 C 270.054688 69.230469 270.570312 67.917969 270.542969 66.550781 C 270.492188 63.628906 267.957031 61.253906 264.890625 61.253906 C 238.605469 61.574219 212.203125 61.738281 186.335938 61.738281 L 186.320312 61.738281 C 160.445312 61.738281 134.023438 61.574219 107.765625 61.261719 Z M 186.300781 75.828125 C 160.359375 75.828125 133.859375 75.664062 107.53125 75.347656 C 105.0625 75.320312 102.765625 74.34375 101.078125 72.59375 C 99.460938 70.933594 98.601562 68.761719 98.644531 66.480469 C 98.738281 61.730469 102.800781 57.855469 107.703125 57.855469 C 134.046875 58.179688 160.460938 58.339844 186.320312 58.339844 L 186.328125 58.339844 C 212.1875 58.339844 238.582031 58.179688 264.777344 57.863281 C 269.792969 57.855469 273.855469 61.730469 273.941406 66.484375 C 273.984375 68.765625 273.125 70.933594 271.511719 72.59375 C 269.824219 74.34375 267.535156 75.320312 265.0625 75.347656 C 238.738281 75.664062 212.238281 75.828125 186.300781 75.828125 " fill-opacity="1" fill-rule="nonzero"/><path fill="#000000" d="M 107.765625 62.109375 C 105.125 62.109375 102.941406 64.109375 102.890625 66.566406 C 102.871094 67.707031 103.3125 68.796875 104.125 69.636719 C 105.023438 70.566406 106.253906 71.082031 107.578125 71.101562 C 133.902344 71.410156 160.394531 71.570312 186.300781 71.570312 C 212.203125 71.570312 238.695312 71.410156 265.011719 71.101562 C 266.34375 71.082031 267.566406 70.566406 268.464844 69.640625 C 269.28125 68.796875 269.71875 67.707031 269.699219 66.566406 C 269.652344 64.109375 267.496094 62.109375 264.890625 62.109375 C 238.601562 62.425781 212.164062 62.589844 186.335938 62.589844 C 160.484375 62.589844 134.050781 62.425781 107.765625 62.109375 Z M 186.300781 73.273438 C 160.378906 73.273438 133.890625 73.113281 107.558594 72.796875 C 105.777344 72.78125 104.125 72.078125 102.910156 70.824219 C 101.773438 69.65625 101.160156 68.128906 101.191406 66.53125 C 101.265625 63.15625 104.210938 60.410156 107.765625 60.410156 L 107.777344 60.410156 C 134.0625 60.726562 160.488281 60.890625 186.320312 60.890625 C 212.164062 60.890625 238.585938 60.726562 264.882812 60.40625 C 268.410156 60.40625 271.335938 63.15625 271.394531 66.53125 C 271.425781 68.128906 270.824219 69.65625 269.6875 70.824219 C 268.46875 72.078125 266.820312 72.78125 265.035156 72.796875 C 238.699219 73.113281 212.214844 73.273438 186.300781 73.273438 Z M 107.691406 58.710938 C 103.261719 58.710938 99.582031 62.199219 99.496094 66.492188 C 99.457031 68.550781 100.230469 70.507812 101.691406 72.003906 C 103.222656 73.589844 105.292969 74.46875 107.539062 74.5 C 133.871094 74.8125 160.367188 74.96875 186.300781 74.96875 C 212.21875 74.96875 238.714844 74.8125 265.054688 74.5 C 267.292969 74.46875 269.375 73.589844 270.90625 72.003906 C 272.359375 70.507812 273.136719 68.550781 273.09375 66.5 C 273.011719 62.199219 269.28125 58.710938 264.785156 58.710938 C 238.621094 59.023438 212.21875 59.191406 186.328125 59.191406 C 160.511719 59.191406 134.050781 59.023438 107.691406 58.710938 Z M 186.300781 76.671875 C 160.367188 76.671875 133.863281 76.511719 107.515625 76.195312 C 104.820312 76.167969 102.316406 75.097656 100.46875 73.1875 C 98.703125 71.363281 97.746094 68.972656 97.796875 66.460938 C 97.898438 61.253906 102.34375 57.003906 107.703125 57.003906 C 134.066406 57.328125 160.515625 57.492188 186.320312 57.492188 C 212.214844 57.492188 238.601562 57.328125 264.769531 57.003906 C 270.203125 57.003906 274.699219 61.253906 274.796875 66.464844 C 274.839844 68.980469 273.898438 71.363281 272.125 73.195312 C 270.285156 75.097656 267.773438 76.167969 265.070312 76.195312 C 238.734375 76.511719 212.222656 76.671875 186.300781 76.671875 " fill-opacity="1" fill-rule="nonzero"/><path fill="#000000" d="M 129.691406 216.539062 C 129.742188 216.539062 129.792969 216.539062 129.839844 216.535156 C 131.019531 216.453125 131.910156 215.433594 131.828125 214.253906 C 131.339844 207.101562 138.023438 200.578125 147.046875 199.410156 C 148.21875 199.257812 149.042969 198.183594 148.890625 197.011719 C 148.742188 195.84375 147.671875 195.015625 146.496094 195.167969 C 135.234375 196.628906 126.917969 205.140625 127.5625 214.546875 C 127.640625 215.675781 128.578125 216.539062 129.691406 216.539062 Z M 129.691406 216.539062 " fill-opacity="1" fill-rule="nonzero"/><path fill="#000000" d="M 157.464844 196.21875 C 157.464844 196.503906 157.410156 196.777344 157.300781 197.039062 C 157.191406 197.300781 157.039062 197.53125 156.835938 197.730469 C 156.636719 197.933594 156.40625 198.085938 156.144531 198.195312 C 155.882812 198.304688 155.609375 198.359375 155.324219 198.359375 C 155.042969 198.359375 154.769531 198.304688 154.507812 198.195312 C 154.246094 198.085938 154.011719 197.933594 153.8125 197.730469 C 153.613281 197.53125 153.457031 197.300781 153.347656 197.039062 C 153.242188 196.777344 153.1875 196.503906 153.1875 196.21875 C 153.1875 195.933594 153.242188 195.664062 153.347656 195.402344 C 153.457031 195.136719 153.613281 194.90625 153.8125 194.707031 C 154.011719 194.507812 154.246094 194.351562 154.507812 194.242188 C 154.769531 194.132812 155.042969 194.078125 155.324219 194.078125 C 155.609375 194.078125 155.882812 194.132812 156.144531 194.242188 C 156.40625 194.351562 156.636719 194.507812 156.835938 194.707031 C 157.039062 194.90625 157.191406 195.136719 157.300781 195.402344 C 157.410156 195.664062 157.464844 195.933594 157.464844 196.21875 Z M 157.464844 196.21875 " fill-opacity="1" fill-rule="nonzero"/><g clip-path="url(#id2)"><path fill="#000000" d="M 142.101562 236.859375 C 148.371094 236.859375 154.699219 234.226562 159.835938 229.570312 C 161.566406 251.167969 173.238281 267.875 187.398438 267.875 C 201.558594 267.875 213.234375 251.167969 214.964844 229.570312 C 220.101562 234.226562 226.429688 236.859375 232.699219 236.859375 C 239.253906 236.859375 245.730469 234 250.671875 227.625 C 263.539062 211.019531 250.710938 190.316406 229.894531 187.476562 L 203.625 182.722656 C 206.179688 179.328125 207.714844 175.125 207.714844 170.550781 C 207.714844 161.582031 201.898438 153.984375 193.835938 151.289062 C 193.847656 144.683594 197.574219 141.40625 199.65625 140.101562 C 200.625 141.074219 201.960938 141.675781 203.4375 141.675781 C 206.386719 141.675781 208.785156 139.277344 208.785156 136.328125 C 208.785156 133.378906 206.386719 130.980469 203.4375 130.980469 C 200.59375 130.980469 198.28125 133.222656 198.121094 136.03125 C 194.667969 137.90625 189.9375 142.5 189.570312 150.351562 C 188.859375 150.273438 188.132812 150.230469 187.402344 150.230469 C 186.667969 150.230469 185.941406 150.273438 185.230469 150.351562 C 184.863281 142.5 180.132812 137.90625 176.679688 136.03125 C 176.519531 133.222656 174.207031 130.980469 171.363281 130.980469 C 168.414062 130.980469 166.015625 133.378906 166.015625 136.328125 C 166.015625 139.277344 168.414062 141.675781 171.363281 141.675781 C 172.835938 141.675781 174.171875 141.074219 175.140625 140.109375 C 177.210938 141.410156 180.949219 144.695312 180.960938 151.289062 C 172.902344 153.984375 167.085938 161.582031 167.085938 170.550781 C 167.085938 175.125 168.621094 179.328125 171.171875 182.722656 L 144.90625 187.476562 C 124.089844 190.316406 111.261719 211.019531 124.128906 227.625 C 129.070312 234 135.546875 236.859375 142.101562 236.859375 Z M 203.4375 135.257812 C 204.027344 135.257812 204.507812 135.738281 204.507812 136.328125 C 204.507812 136.917969 204.027344 137.398438 203.4375 137.398438 C 202.847656 137.398438 202.367188 136.917969 202.367188 136.328125 C 202.367188 135.738281 202.847656 135.257812 203.4375 135.257812 Z M 171.363281 137.398438 C 170.773438 137.398438 170.292969 136.917969 170.292969 136.328125 C 170.292969 135.738281 170.773438 135.257812 171.363281 135.257812 C 171.953125 135.257812 172.433594 135.738281 172.433594 136.328125 C 172.433594 136.917969 171.953125 137.398438 171.363281 137.398438 Z M 187.398438 263.597656 C 179.34375 263.597656 172.082031 256.355469 167.824219 245.617188 C 174.769531 240.886719 189.179688 234.511719 206.929688 245.742188 C 202.664062 256.414062 195.425781 263.597656 187.398438 263.597656 Z M 208.375 241.609375 C 189.71875 230.25 174.375 236.296875 166.375 241.445312 C 165.394531 238.1875 164.679688 234.6875 164.273438 231.03125 C 168.644531 227.058594 186.851562 213.101562 210.542969 230.90625 C 210.128906 234.667969 209.390625 238.269531 208.375 241.609375 Z M 210.894531 225.898438 C 189.117188 211.011719 171.324219 220.378906 163.90625 225.878906 C 163.898438 225.625 163.898438 225.371094 163.894531 225.117188 C 165.59375 222.863281 167.0625 220.332031 168.207031 217.539062 C 169.453125 214.488281 170.808594 211.417969 172.179688 208.425781 C 179.210938 204.933594 189.976562 202.398438 202.765625 208.742188 C 204.085938 211.632812 205.390625 214.59375 206.59375 217.539062 C 207.738281 220.332031 209.207031 222.863281 210.90625 225.117188 C 210.898438 225.378906 210.898438 225.640625 210.894531 225.898438 Z M 174.902344 202.617188 C 178.164062 195.773438 181.1875 189.785156 182.703125 186.078125 C 182.824219 185.773438 182.910156 185.484375 182.976562 185.199219 C 184.414062 184.714844 185.894531 184.453125 187.398438 184.453125 C 188.90625 184.453125 190.386719 184.714844 191.820312 185.199219 C 191.890625 185.484375 191.972656 185.773438 192.097656 186.078125 C 193.632812 189.832031 196.710938 195.929688 200.023438 202.882812 C 190.183594 199.277344 181.566406 200.265625 174.902344 202.617188 Z M 229.132812 191.6875 C 229.195312 191.699219 229.257812 191.707031 229.316406 191.714844 C 238.839844 193.015625 247.03125 198.847656 250.1875 206.574219 C 252.722656 212.78125 251.695312 219.324219 247.292969 225.003906 C 243.449219 229.960938 238.402344 232.582031 232.699219 232.582031 C 223.527344 232.582031 214.628906 225.886719 210.554688 215.921875 C 207.53125 208.523438 203.863281 200.957031 200.917969 194.875 C 199.199219 191.328125 197.675781 188.183594 196.628906 185.804688 Z M 187.402344 154.507812 C 196.242188 154.507812 203.4375 161.707031 203.4375 170.550781 C 203.4375 174.957031 201.648438 178.945312 198.761719 181.84375 L 195.800781 181.304688 C 195.503906 181.265625 195.21875 181.246094 194.953125 181.246094 C 194.550781 181.246094 194.191406 181.300781 193.855469 181.386719 C 191.78125 180.605469 189.625 180.175781 187.398438 180.175781 C 185.175781 180.175781 183.019531 180.605469 180.945312 181.386719 C 180.609375 181.300781 180.25 181.246094 179.847656 181.246094 C 179.582031 181.246094 179.296875 181.265625 179 181.304688 L 176.039062 181.84375 C 173.152344 178.945312 171.363281 174.957031 171.363281 170.550781 C 171.363281 161.707031 178.558594 154.507812 187.402344 154.507812 Z M 124.613281 206.574219 C 127.769531 198.847656 135.960938 193.015625 145.480469 191.714844 C 145.542969 191.707031 145.605469 191.699219 145.667969 191.6875 L 178.171875 185.804688 C 177.125 188.183594 175.601562 191.324219 173.886719 194.867188 C 170.941406 200.949219 167.273438 208.519531 164.246094 215.921875 C 160.171875 225.886719 151.273438 232.582031 142.101562 232.582031 C 136.394531 232.582031 131.351562 229.960938 127.507812 225.003906 C 123.105469 219.324219 122.078125 212.78125 124.613281 206.574219 Z M 124.613281 206.574219 " fill-opacity="1" fill-rule="nonzero"/></g><path fill="#000000" d="M 227.757812 199.410156 C 236.78125 200.578125 243.464844 207.101562 242.976562 214.253906 C 242.894531 215.433594 243.785156 216.453125 244.960938 216.535156 C 245.011719 216.539062 245.0625 216.539062 245.109375 216.539062 C 246.222656 216.539062 247.164062 215.675781 247.242188 214.546875 C 247.886719 205.140625 239.566406 196.628906 228.304688 195.167969 C 227.140625 195.011719 226.0625 195.84375 225.910156 197.011719 C 225.757812 198.183594 226.585938 199.257812 227.757812 199.410156 Z M 227.757812 199.410156 " fill-opacity="1" fill-rule="nonzero"/><path fill="#000000" d="M 221.617188 196.21875 C 221.617188 196.503906 221.5625 196.777344 221.453125 197.039062 C 221.34375 197.300781 221.191406 197.53125 220.988281 197.730469 C 220.789062 197.933594 220.558594 198.085938 220.296875 198.195312 C 220.035156 198.304688 219.761719 198.359375 219.476562 198.359375 C 219.195312 198.359375 218.921875 198.304688 218.660156 198.195312 C 218.398438 198.085938 218.164062 197.933594 217.964844 197.730469 C 217.765625 197.53125 217.609375 197.300781 217.5 197.039062 C 217.394531 196.777344 217.339844 196.503906 217.339844 196.21875 C 217.339844 195.933594 217.394531 195.664062 217.5 195.402344 C 217.609375 195.136719 217.765625 194.90625 217.964844 194.707031 C 218.164062 194.507812 218.398438 194.351562 218.660156 194.242188 C 218.921875 194.132812 219.195312 194.078125 219.476562 194.078125 C 219.761719 194.078125 220.035156 194.132812 220.296875 194.242188 C 220.558594 194.351562 220.789062 194.507812 220.988281 194.707031 C 221.191406 194.90625 221.34375 195.136719 221.453125 195.402344 C 221.5625 195.664062 221.617188 195.933594 221.617188 196.21875 Z M 221.617188 196.21875 " fill-opacity="1" fill-rule="nonzero"/></svg>